<svg width="488" height="31" viewBox="0 0 488 31" fill="none" xmlns="http://www.w3.org/2000/svg">
<path d="M2.016 23.04L3.872 9.60004H1.536L1.888 7.16804H4.224L4.64 4.38404C4.768 3.48804 4.94933 2.76271 5.184 2.20804C5.41867 1.63204 5.73867 1.18404 6.144 0.864038C6.54933 0.544039 7.05067 0.320038 7.648 0.192038C8.24533 0.064038 8.94933 3.8147e-05 9.76 3.8147e-05H11.52L11.168 2.46404H9.984C9.38667 2.46404 8.91733 2.52804 8.576 2.65604C8.256 2.7627 8.01067 2.97604 7.84 3.29604C7.69067 3.5947 7.56267 4.05337 7.456 4.67204L7.104 7.16804H16.736L14.496 23.04H11.616L13.504 9.60004H6.784L4.864 23.04H2.016ZM13.792 4.19204L14.336 0.416039H18.24L17.728 4.19204H13.792ZM30.0425 23.04L31.3225 14.08C31.5358 12.4587 31.3652 11.2534 30.8105 10.464C30.2558 9.65337 29.3278 9.24804 28.0265 9.24804C26.7038 9.24804 25.5198 9.72804 24.4745 10.688C23.4505 11.648 22.7998 13.0134 22.5225 14.784L21.3705 23.04H18.4905L20.7305 7.16804H23.6105L23.2585 9.76004C23.8985 8.82137 24.7198 8.09604 25.7225 7.58404C26.7465 7.05071 27.8452 6.78404 29.0185 6.78404C30.8958 6.78404 32.3145 7.37071 33.2745 8.54404C34.2345 9.69604 34.5438 11.4667 34.2025 13.856L32.8905 23.04H30.0425ZM43.4613 23.424C41.8826 23.424 40.5599 23.04 39.4933 22.272C38.4266 21.504 37.6479 20.48 37.1573 19.2C36.6879 17.8987 36.5599 16.4907 36.7733 14.976C37.0079 13.44 37.5306 12.064 38.3413 10.848C39.1519 9.61071 40.1866 8.62937 41.4453 7.90404C42.7253 7.15737 44.1439 6.78404 45.7013 6.78404C47.0239 6.78404 48.1439 7.05071 49.0613 7.58404C49.9786 8.11737 50.6399 8.85337 51.0453 9.79204L52.4213 3.8147e-05H55.3333L52.1013 23.04H49.1893L49.5733 20.48C48.9546 21.248 48.1333 21.9307 47.1093 22.528C46.1066 23.1254 44.8906 23.424 43.4613 23.424ZM44.0693 20.928C45.1359 20.928 46.1066 20.6827 46.9813 20.192C47.8559 19.68 48.5813 18.9867 49.1573 18.112C49.7546 17.2374 50.1279 16.2134 50.2773 15.04C50.5119 13.312 50.2133 11.9254 49.3813 10.88C48.5706 9.81337 47.3866 9.28004 45.8293 9.28004C44.7839 9.28004 43.8239 9.53604 42.9493 10.048C42.0959 10.56 41.3813 11.264 40.8053 12.16C40.2293 13.0347 39.8559 14.016 39.6853 15.104C39.5359 16.192 39.6106 17.184 39.9093 18.08C40.2293 18.9547 40.7519 19.648 41.4773 20.16C42.2026 20.672 43.0666 20.928 44.0693 20.928ZM70.7958 23.424C69.0038 23.424 67.6598 23.008 66.7638 22.176C65.8891 21.344 65.4518 20.3414 65.4518 19.168C65.4518 17.9947 65.7718 16.9707 66.4118 16.096C67.0731 15.2214 67.9798 14.5494 69.1318 14.08C70.2838 13.5894 71.5958 13.344 73.0677 13.344C73.9851 13.344 74.8064 13.4187 75.5318 13.568C76.2571 13.696 76.8438 13.8347 77.2918 13.984L77.3878 13.248C77.6011 11.8827 77.3984 10.8694 76.7798 10.208C76.1611 9.52537 75.2544 9.18404 74.0598 9.18404C73.0571 9.18404 72.1718 9.3867 71.4038 9.79204C70.6358 10.1974 70.0918 10.88 69.7718 11.84H66.7958C67.0944 10.7094 67.6171 9.7707 68.3638 9.02404C69.1318 8.25604 70.0278 7.6907 71.0518 7.32804C72.0971 6.96537 73.1744 6.78404 74.2838 6.78404C76.5664 6.78404 78.1984 7.38137 79.1798 8.57604C80.1824 9.7707 80.5451 11.3494 80.2678 13.312L79.4678 18.88C79.3824 19.6054 79.4358 20.064 79.6278 20.256C79.8411 20.448 80.2678 20.544 80.9078 20.544H81.1638L80.8118 23.04H80.1078C79.0838 23.04 78.2624 22.8694 77.6438 22.528C77.0251 22.1867 76.6731 21.504 76.5878 20.48C75.9691 21.312 75.1798 22.016 74.2198 22.592C73.2811 23.1467 72.1398 23.424 70.7958 23.424ZM68.4278 18.752C68.4278 19.456 68.6838 20.0107 69.1958 20.416C69.7291 20.8214 70.4864 21.024 71.4678 21.024C72.7051 21.024 73.8144 20.6187 74.7958 19.808C75.7984 18.9974 76.4918 17.7494 76.8758 16.064C76.4278 15.9147 75.8624 15.7867 75.1798 15.68C74.5184 15.552 73.8358 15.488 73.1318 15.488C72.0438 15.488 71.1478 15.648 70.4438 15.968C69.7398 16.2667 69.2278 16.6614 68.9078 17.152C68.5878 17.6427 68.4278 18.176 68.4278 18.752ZM101.814 23.424C100.513 23.424 99.3929 23.1574 98.4543 22.624C97.5369 22.0907 96.8756 21.3654 96.4703 20.448L96.0863 23.04H93.2063L96.4383 3.8147e-05H99.3503L97.9423 9.72804C98.5609 8.96004 99.3823 8.27737 100.406 7.68004C101.43 7.08271 102.657 6.78404 104.086 6.78404C105.644 6.78404 106.956 7.16804 108.022 7.93604C109.11 8.70404 109.889 9.72804 110.358 11.008C110.849 12.288 110.977 13.696 110.742 15.232C110.529 16.7467 110.006 18.1227 109.174 19.36C108.364 20.5974 107.329 21.5894 106.07 22.336C104.812 23.0614 103.393 23.424 101.814 23.424ZM101.686 20.928C102.732 20.928 103.692 20.672 104.566 20.16C105.441 19.648 106.166 18.9547 106.742 18.08C107.318 17.184 107.692 16.192 107.862 15.104C108.012 14.016 107.926 13.0347 107.606 12.16C107.308 11.2854 106.806 10.592 106.102 10.08C105.398 9.54671 104.513 9.28004 103.446 9.28004C102.465 9.28004 101.526 9.52537 100.63 10.016C99.7343 10.4854 98.9769 11.168 98.3583 12.064C97.7396 12.96 97.3449 14.0374 97.1743 15.296C97.0463 16.4054 97.1423 17.3867 97.4623 18.24C97.7823 19.072 98.3049 19.7334 99.0303 20.224C99.7556 20.6934 100.641 20.928 101.686 20.928ZM119.976 23.424C118.334 23.424 116.926 23.0507 115.752 22.304C114.579 21.5574 113.715 20.5334 113.16 19.232C112.627 17.9307 112.478 16.4694 112.712 14.848C112.968 13.2267 113.534 11.8187 114.408 10.624C115.283 9.40804 116.36 8.46937 117.64 7.80804C118.92 7.12537 120.286 6.78404 121.736 6.78404C123.422 6.78404 124.84 7.16804 125.992 7.93604C127.166 8.68271 128.019 9.70671 128.552 11.008C129.107 12.288 129.267 13.7387 129.032 15.36C128.798 16.96 128.232 18.368 127.336 19.584C126.462 20.8 125.384 21.7494 124.104 22.432C122.824 23.0934 121.448 23.424 119.976 23.424ZM120.296 20.896C121.278 20.896 122.184 20.6614 123.016 20.192C123.87 19.7227 124.584 19.0614 125.16 18.208C125.736 17.3547 126.099 16.352 126.248 15.2C126.419 14.0694 126.344 13.0667 126.024 12.192C125.704 11.296 125.16 10.5814 124.392 10.048C123.624 9.51471 122.675 9.24804 121.544 9.24804C120.627 9.24804 119.731 9.47204 118.856 9.92004C118.003 10.368 117.267 11.0294 116.648 11.904C116.051 12.7787 115.667 13.8454 115.496 15.104C115.368 16.192 115.464 17.1734 115.784 18.048C116.126 18.9227 116.68 19.616 117.448 20.128C118.216 20.64 119.166 20.896 120.296 20.896ZM139.502 23.424C138.2 23.424 137.08 23.1574 136.142 22.624C135.224 22.0907 134.563 21.3654 134.158 20.448L133.774 23.04H130.894L134.126 3.8147e-05H137.038L135.63 9.72804C136.248 8.96004 137.07 8.27737 138.094 7.68004C139.118 7.08271 140.344 6.78404 141.774 6.78404C143.331 6.78404 144.643 7.16804 145.71 7.93604C146.798 8.70404 147.576 9.72804 148.046 11.008C148.536 12.288 148.664 13.696 148.43 15.232C148.216 16.7467 147.694 18.1227 146.862 19.36C146.051 20.5974 145.016 21.5894 143.758 22.336C142.499 23.0614 141.08 23.424 139.502 23.424ZM139.374 20.928C140.419 20.928 141.379 20.672 142.254 20.16C143.128 19.648 143.854 18.9547 144.43 18.08C145.006 17.184 145.379 16.192 145.55 15.104C145.699 14.016 145.614 13.0347 145.294 12.16C144.995 11.2854 144.494 10.592 143.79 10.08C143.086 9.54671 142.2 9.28004 141.134 9.28004C140.152 9.28004 139.214 9.52537 138.318 10.016C137.422 10.4854 136.664 11.168 136.046 12.064C135.427 12.96 135.032 14.0374 134.862 15.296C134.734 16.4054 134.83 17.3867 135.15 18.24C135.47 19.072 135.992 19.7334 136.718 20.224C137.443 20.6934 138.328 20.928 139.374 20.928ZM154.983 23.424C153.191 23.424 151.847 23.008 150.951 22.176C150.077 21.344 149.639 20.3414 149.639 19.168C149.639 17.9947 149.959 16.9707 150.599 16.096C151.261 15.2214 152.167 14.5494 153.319 14.08C154.471 13.5894 155.783 13.344 157.255 13.344C158.173 13.344 158.994 13.4187 159.719 13.568C160.445 13.696 161.031 13.8347 161.479 13.984L161.575 13.248C161.789 11.8827 161.586 10.8694 160.967 10.208C160.349 9.52537 159.442 9.18404 158.247 9.18404C157.245 9.18404 156.359 9.3867 155.591 9.79204C154.823 10.1974 154.279 10.88 153.959 11.84H150.983C151.282 10.7094 151.805 9.7707 152.551 9.02404C153.319 8.25604 154.215 7.6907 155.239 7.32804C156.285 6.96537 157.362 6.78404 158.471 6.78404C160.754 6.78404 162.386 7.38137 163.367 8.57604C164.37 9.7707 164.733 11.3494 164.455 13.312L163.655 18.88C163.57 19.6054 163.623 20.064 163.815 20.256C164.029 20.448 164.455 20.544 165.095 20.544H165.351L164.999 23.04H164.295C163.271 23.04 162.45 22.8694 161.831 22.528C161.213 22.1867 160.861 21.504 160.775 20.48C160.157 21.312 159.367 22.016 158.407 22.592C157.469 23.1467 156.327 23.424 154.983 23.424ZM152.615 18.752C152.615 19.456 152.871 20.0107 153.383 20.416C153.917 20.8214 154.674 21.024 155.655 21.024C156.893 21.024 158.002 20.6187 158.983 19.808C159.986 18.9974 160.679 17.7494 161.063 16.064C160.615 15.9147 160.05 15.7867 159.367 15.68C158.706 15.552 158.023 15.488 157.319 15.488C156.231 15.488 155.335 15.648 154.631 15.968C153.927 16.2667 153.415 16.6614 153.095 17.152C152.775 17.6427 152.615 18.176 152.615 18.752ZM186.002 23.424C184.7 23.424 183.58 23.1574 182.642 22.624C181.724 22.0907 181.063 21.3654 180.658 20.448L180.274 23.04H177.394L180.626 3.8147e-05H183.538L182.13 9.72804C182.748 8.96004 183.57 8.27737 184.594 7.68004C185.618 7.08271 186.844 6.78404 188.274 6.78404C189.831 6.78404 191.143 7.16804 192.21 7.93604C193.298 8.70404 194.076 9.72804 194.546 11.008C195.036 12.288 195.164 13.696 194.93 15.232C194.716 16.7467 194.194 18.1227 193.362 19.36C192.551 20.5974 191.516 21.5894 190.258 22.336C188.999 23.0614 187.58 23.424 186.002 23.424ZM185.874 20.928C186.919 20.928 187.879 20.672 188.754 20.16C189.628 19.648 190.354 18.9547 190.93 18.08C191.506 17.184 191.879 16.192 192.05 15.104C192.199 14.016 192.114 13.0347 191.794 12.16C191.495 11.2854 190.994 10.592 190.29 10.08C189.586 9.54671 188.7 9.28004 187.634 9.28004C186.652 9.28004 185.714 9.52537 184.818 10.016C183.922 10.4854 183.164 11.168 182.546 12.064C181.927 12.96 181.532 14.0374 181.362 15.296C181.234 16.4054 181.33 17.3867 181.65 18.24C181.97 19.072 182.492 19.7334 183.218 20.224C183.943 20.6934 184.828 20.928 185.874 20.928ZM201.483 23.424C199.691 23.424 198.347 23.008 197.451 22.176C196.577 21.344 196.139 20.3414 196.139 19.168C196.139 17.9947 196.459 16.9707 197.099 16.096C197.761 15.2214 198.667 14.5494 199.819 14.08C200.971 13.5894 202.283 13.344 203.755 13.344C204.673 13.344 205.494 13.4187 206.219 13.568C206.945 13.696 207.531 13.8347 207.979 13.984L208.075 13.248C208.289 11.8827 208.086 10.8694 207.467 10.208C206.849 9.52537 205.942 9.18404 204.747 9.18404C203.745 9.18404 202.859 9.3867 202.091 9.79204C201.323 10.1974 200.779 10.88 200.459 11.84H197.483C197.782 10.7094 198.305 9.7707 199.051 9.02404C199.819 8.25604 200.715 7.6907 201.739 7.32804C202.785 6.96537 203.862 6.78404 204.971 6.78404C207.254 6.78404 208.886 7.38137 209.867 8.57604C210.87 9.7707 211.233 11.3494 210.955 13.312L210.155 18.88C210.07 19.6054 210.123 20.064 210.315 20.256C210.529 20.448 210.955 20.544 211.595 20.544H211.851L211.499 23.04H210.795C209.771 23.04 208.95 22.8694 208.331 22.528C207.713 22.1867 207.361 21.504 207.275 20.48C206.657 21.312 205.867 22.016 204.907 22.592C203.969 23.1467 202.827 23.424 201.483 23.424ZM199.115 18.752C199.115 19.456 199.371 20.0107 199.883 20.416C200.417 20.8214 201.174 21.024 202.155 21.024C203.393 21.024 204.502 20.6187 205.483 19.808C206.486 18.9974 207.179 17.7494 207.563 16.064C207.115 15.9147 206.55 15.7867 205.867 15.68C205.206 15.552 204.523 15.488 203.819 15.488C202.731 15.488 201.835 15.648 201.131 15.968C200.427 16.2667 199.915 16.6614 199.595 17.152C199.275 17.6427 199.115 18.176 199.115 18.752ZM220.673 23.424C219.372 23.424 218.199 23.2214 217.153 22.816C216.129 22.4107 215.319 21.8134 214.721 21.024C214.145 20.2134 213.879 19.2214 213.921 18.048H216.865C216.887 19.0507 217.292 19.8187 218.081 20.352C218.871 20.864 219.841 21.12 220.993 21.12C222.124 21.12 222.977 20.8854 223.553 20.416C224.129 19.9467 224.471 19.36 224.577 18.656C224.663 18.1014 224.577 17.6854 224.321 17.408C224.087 17.1307 223.777 16.928 223.393 16.8C223.009 16.672 222.615 16.5654 222.209 16.48C221.783 16.3947 221.345 16.2987 220.897 16.192C220.449 16.064 220.044 15.9574 219.681 15.872C218.956 15.6587 218.252 15.392 217.569 15.072C216.908 14.7307 216.396 14.2614 216.033 13.664C215.671 13.0454 215.564 12.224 215.713 11.2C215.905 9.94137 216.524 8.89604 217.569 8.06404C218.615 7.21071 220.044 6.78404 221.857 6.78404C223.031 6.78404 224.065 6.96537 224.961 7.32804C225.879 7.66937 226.583 8.21337 227.073 8.96004C227.585 9.68537 227.82 10.6134 227.777 11.744H224.961C224.983 10.8267 224.663 10.1654 224.001 9.76004C223.34 9.33337 222.54 9.12004 221.601 9.12004C220.641 9.12004 219.884 9.30137 219.329 9.66404C218.796 10.0267 218.476 10.5387 218.369 11.2C218.305 11.84 218.476 12.32 218.881 12.64C219.308 12.9387 219.905 13.1947 220.673 13.408C220.929 13.4507 221.207 13.5147 221.505 13.6C221.804 13.6854 222.092 13.76 222.369 13.824C222.647 13.8667 222.892 13.92 223.105 13.984C223.617 14.0907 224.129 14.2294 224.641 14.4C225.175 14.5707 225.665 14.8267 226.113 15.168C226.561 15.5094 226.892 15.968 227.105 16.544C227.34 17.0987 227.393 17.8134 227.265 18.688C227.159 19.5627 226.828 20.3627 226.273 21.088C225.719 21.8134 224.961 22.3894 224.001 22.816C223.063 23.2214 221.953 23.424 220.673 23.424ZM241.637 23.04L242.885 14.08C243.098 12.4587 242.938 11.2534 242.405 10.464C241.893 9.65337 240.997 9.24804 239.717 9.24804C238.821 9.24804 237.978 9.46137 237.189 9.88804C236.4 10.2934 235.728 10.8907 235.173 11.68C234.64 12.4694 234.288 13.44 234.117 14.592L232.933 23.04H230.053L233.285 3.8147e-05H236.165L234.789 9.79204C235.45 8.85337 236.304 8.11737 237.349 7.58404C238.394 7.05071 239.493 6.78404 240.645 6.78404C242.48 6.78404 243.877 7.37071 244.837 8.54404C245.797 9.69604 246.106 11.4667 245.765 13.856L244.453 23.04H241.637ZM257.956 23.04L260.196 7.16804H263.076L260.836 23.04H257.956ZM260.164 3.77604L260.708 3.8147e-05H264.644L264.1 3.77604H260.164ZM276.418 23.04L277.698 14.08C277.911 12.4587 277.74 11.2534 277.186 10.464C276.631 9.65337 275.703 9.24804 274.402 9.24804C273.079 9.24804 271.895 9.72804 270.85 10.688C269.826 11.648 269.175 13.0134 268.898 14.784L267.746 23.04H264.866L267.106 7.16804H269.986L269.634 9.76004C270.274 8.82137 271.095 8.09604 272.098 7.58404C273.122 7.05071 274.22 6.78404 275.394 6.78404C277.271 6.78404 278.69 7.37071 279.65 8.54404C280.61 9.69604 280.919 11.4667 280.578 13.856L279.266 23.04H276.418ZM292.417 30.08L292.769 27.712H294.433C294.753 27.712 295.009 27.6587 295.201 27.552C295.414 27.4454 295.649 27.232 295.905 26.912C296.161 26.6134 296.47 26.144 296.833 25.504L298.593 22.56L294.017 7.16804H297.121L300.513 19.36L307.681 7.16804H310.721L299.393 26.272C298.902 27.1254 298.486 27.7974 298.145 28.288C297.803 28.8 297.494 29.184 297.217 29.44C296.939 29.696 296.63 29.8667 296.289 29.952C295.969 30.0374 295.574 30.08 295.105 30.08H292.417ZM317.695 23.424C316.052 23.424 314.644 23.0507 313.471 22.304C312.298 21.5574 311.434 20.5334 310.879 19.232C310.346 17.9307 310.196 16.4694 310.431 14.848C310.687 13.2267 311.252 11.8187 312.127 10.624C313.002 9.40804 314.079 8.46937 315.359 7.80804C316.639 7.12537 318.004 6.78404 319.455 6.78404C321.14 6.78404 322.559 7.16804 323.711 7.93604C324.884 8.68271 325.738 9.70671 326.271 11.008C326.826 12.288 326.986 13.7387 326.751 15.36C326.516 16.96 325.951 18.368 325.055 19.584C324.18 20.8 323.103 21.7494 321.823 22.432C320.543 23.0934 319.167 23.424 317.695 23.424ZM318.015 20.896C318.996 20.896 319.903 20.6614 320.735 20.192C321.588 19.7227 322.303 19.0614 322.879 18.208C323.455 17.3547 323.818 16.352 323.967 15.2C324.138 14.0694 324.063 13.0667 323.743 12.192C323.423 11.296 322.879 10.5814 322.111 10.048C321.343 9.51471 320.394 9.24804 319.263 9.24804C318.346 9.24804 317.45 9.47204 316.575 9.92004C315.722 10.368 314.986 11.0294 314.367 11.904C313.77 12.7787 313.386 13.8454 313.215 15.104C313.087 16.192 313.183 17.1734 313.503 18.048C313.844 18.9227 314.399 19.616 315.167 20.128C315.935 20.64 316.884 20.896 318.015 20.896ZM334.053 23.424C332.175 23.424 330.746 22.848 329.765 21.696C328.805 20.5227 328.495 18.7414 328.837 16.352L330.149 7.16804H332.997L331.749 16.128C331.535 17.7494 331.706 18.9654 332.261 19.776C332.815 20.5654 333.733 20.96 335.013 20.96C335.887 20.96 336.709 20.768 337.477 20.384C338.245 19.9787 338.895 19.4027 339.429 18.656C339.962 17.888 340.303 16.9494 340.453 15.84L341.669 7.16804H344.549L342.309 23.04H339.429L339.813 20.448C339.151 21.3654 338.319 22.0907 337.317 22.624C336.314 23.1574 335.226 23.424 334.053 23.424ZM345.959 23.04L348.199 7.16804H351.079L350.759 9.63204C351.207 8.82137 351.773 8.19204 352.455 7.74404C353.138 7.27471 353.927 7.04004 354.823 7.04004H356.999L356.647 9.72804H354.215C353.191 9.72804 352.295 10.1547 351.527 11.008C350.759 11.8614 350.237 13.2907 349.959 15.296L348.839 23.04H345.959ZM375.159 23.424C373.602 23.424 372.247 23.072 371.095 22.368C369.965 21.664 369.122 20.704 368.567 19.488C368.034 18.2507 367.853 16.8534 368.023 15.296C368.151 14.0587 368.471 12.9174 368.983 11.872C369.517 10.8267 370.189 9.9307 370.999 9.18404C371.831 8.41604 372.749 7.82937 373.751 7.42404C374.775 6.99737 375.842 6.78404 376.951 6.78404C378.871 6.78404 380.439 7.27471 381.655 8.25604C382.893 9.23737 383.586 10.56 383.735 12.224H380.855C380.706 11.328 380.258 10.6134 379.511 10.08C378.786 9.52537 377.858 9.24804 376.727 9.24804C375.789 9.24804 374.893 9.50404 374.039 10.016C373.186 10.528 372.461 11.2534 371.863 12.192C371.287 13.1094 370.935 14.1867 370.807 15.424C370.701 16.448 370.818 17.376 371.159 18.208C371.501 19.04 372.034 19.7014 372.759 20.192C373.506 20.6827 374.402 20.928 375.447 20.928C376.13 20.928 376.781 20.8107 377.399 20.576C378.039 20.3414 378.594 20 379.063 19.552C379.554 19.104 379.895 18.56 380.087 17.92H383.031C382.69 19.0507 382.114 20.032 381.303 20.864C380.514 21.696 379.575 22.336 378.487 22.784C377.421 23.2107 376.311 23.424 375.159 23.424ZM385.363 23.04L387.603 7.16804H390.483L388.243 23.04H385.363ZM387.571 3.77604L388.115 3.8147e-05H392.051L391.507 3.77604H387.571ZM397.584 23.04C396.688 23.04 395.941 22.9227 395.344 22.688C394.768 22.4534 394.352 22.0267 394.096 21.408C393.861 20.7894 393.829 19.9147 394 18.784L395.312 9.60004H392.528L392.88 7.16804H395.632L396.176 3.29604H399.056L398.512 7.16804H402.64L402.288 9.60004H398.192L396.944 18.4C396.837 19.0827 396.816 19.584 396.88 19.904C396.965 20.2027 397.157 20.3947 397.456 20.48C397.776 20.544 398.266 20.576 398.928 20.576H400.496L400.144 23.04H397.584ZM402.542 30.08L402.894 27.712H404.558C404.878 27.712 405.134 27.6587 405.326 27.552C405.539 27.4454 405.774 27.232 406.03 26.912C406.286 26.6134 406.595 26.144 406.958 25.504L408.718 22.56L404.142 7.16804H407.246L410.638 19.36L417.806 7.16804H420.846L409.518 26.272C409.027 27.1254 408.611 27.7974 408.27 28.288C407.928 28.8 407.619 29.184 407.342 29.44C407.064 29.696 406.755 29.8667 406.414 29.952C406.094 30.0374 405.699 30.08 405.23 30.08H402.542ZM434.397 19.424L434.845 16.448L445.885 10.976L445.661 12.704L436.125 7.23204L436.541 4.25604L447.101 10.688L446.781 12.992L434.397 19.424ZM453.272 19.424L453.72 16.448L464.76 10.976L464.536 12.704L455 7.23204L455.416 4.25604L465.976 10.688L465.656 12.992L453.272 19.424ZM472.147 19.424L472.595 16.448L483.635 10.976L483.411 12.704L473.875 7.23204L474.291 4.25604L484.851 10.688L484.531 12.992L472.147 19.424Z" fill="#FD5338"/>
<path d="M0 27.04H291.025V28.64H0V27.04ZM300.538 27.04H401.15V28.64H300.538V27.04ZM410.663 27.04H487.411V28.64H410.663V27.04Z" fill="#FD5338"/>
</svg>
